<?xml version="1.0" encoding="UTF-8"?>
<svg width="208px" height="42px" viewBox="0 0 208 42" version="1.1" xmlns="http://www.w3.org/2000/svg" xmlns:xlink="http://www.w3.org/1999/xlink">
    <!-- Generator: Sketch 54 (76480) - https://sketchapp.com -->
    <title>Locate2u_logo</title>
    <desc>Created with Sketch.</desc>
    <g id="Page-1" stroke="none" stroke-width="1" fill="none" fill-rule="evenodd">
        <g id="WP-Exam-2020" transform="translate(-146.000000, -41.000000)" fill-rule="nonzero">
            <g id="main-navi">
                <g id="Locate2u_logo" transform="translate(146.091624, 40.500000)">
                    <path d="M4.44129867e-16,5 C-0.00270225356,3.98787785 0.399538003,3.01672186 1.11709495,2.30292176 C1.83465189,1.58912166 2.80790598,1.19198484 3.82,1.2 C4.83209402,1.19198484 5.80534811,1.58912166 6.52290505,2.30292176 C7.240462,3.01672186 7.64270225,3.98787785 7.64,5 L7.64,29.28 L21.78,29.28 C23.6268315,29.3791074 25.0735194,30.9055112 25.0735194,32.755 C25.0735194,34.6044888 23.6268315,36.1308926 21.78,36.23 L3.78,36.23 C2.77134438,36.2273703 1.80534484,35.8227793 1.09587886,35.1058057 C0.386412866,34.3888322 -0.00798753669,33.4186274 8.64908731e-16,32.41 L4.44129867e-16,5 Z" id="Path" fill="#0099FF"></path>
                    <path d="M56.11,23.08 L56.11,23 C56.0521112,19.2927016 57.5048349,15.7213604 60.1341441,13.1071406 C62.7634532,10.4929207 66.3430962,9.06077535 70.05,9.14 C73.34419,8.97776294 76.5808814,10.0471544 79.13,12.14 C79.8897766,12.7808719 80.325729,13.7260461 80.32,14.72 C80.3147207,15.6208344 79.9511044,16.4825222 79.3094341,17.1148114 C78.6677637,17.7471006 77.8008145,18.0979876 76.9,18.09 C76.1086225,18.090045 75.3391561,17.8300427 74.71,17.35 C73.3995301,16.2273229 71.7254904,15.6195505 70,15.64 C66.23,15.64 63.55,18.96 63.55,22.88 L63.55,23 C63.55,27.07 66.18,30.35 70.3,30.35 C72.1331441,30.3547119 73.9071948,29.7018613 75.3,28.51 C75.8795244,28.0791893 76.5781163,27.838175 77.3,27.82 C78.6260072,27.8309718 79.8078703,28.6586408 80.2715329,29.9009904 C80.7351955,31.14334 80.3845848,32.5429501 79.39,33.42 C76.8356052,35.7561733 73.4582262,36.9826762 70,36.83 C66.3160902,36.9116086 62.7569542,35.4937903 60.1382336,32.9014643 C57.5195131,30.3091384 56.0657135,26.7645475 56.11,23.08 L56.11,23.08 Z" id="Path" fill="#0099FF"></path>
                    <path d="M82.16,28.59 L82.16,28.49 C82.16,22.68 86.57,20.01 92.87,20.01 C95.084013,19.9869079 97.2846333,20.355935 99.37,21.1 L99.37,20.65 C99.37,17.52 97.44,15.79 93.67,15.79 C91.9056365,15.7676515 90.1483603,16.0172454 88.46,16.53 C88.1110633,16.6595514 87.7421998,16.7272327 87.37,16.73 C86.5437025,16.7461571 85.7457905,16.4284802 85.1567121,15.848812 C84.5676337,15.2691438 84.23715,14.4764505 84.24,13.65 C84.2367022,12.35612 85.0323549,11.194467 86.24,10.73 C88.9542431,9.73804822 91.831111,9.26648615 94.72,9.34 C98.84,9.34 101.81,10.43 103.72,12.34 C105.63,14.25 106.59,17.26 106.59,20.83 L106.59,32.91 C106.590092,33.8788099 106.201845,34.8072302 105.51211,35.4875677 C104.822376,36.1679051 103.888717,36.5433814 102.92,36.53 C102.024654,36.5960296 101.139823,36.3031407 100.460702,35.7159449 C99.7815813,35.1287491 99.3639722,34.2954953 99.3,33.4 L99.3,33.4 C97.2709708,35.6635244 94.3373304,36.9029874 91.3,36.78 C86.28,36.73 82.16,33.85 82.16,28.59 Z M99.47,26.85 L99.47,25.51 C97.955043,24.8414571 96.3158856,24.500676 94.66,24.51 C91.44,24.51 89.45,25.8 89.45,28.18 L89.45,28.28 C89.45,30.28 91.14,31.51 93.57,31.51 C97.09,31.52 99.47,29.58 99.47,26.85 Z" id="Shape" fill="#0099FF"></path>
                    <path d="M112.13,28.69 L112.13,16.08 L111.88,16.08 C110.684966,16.1465708 109.551089,15.5468631 108.933523,14.5216072 C108.315956,13.4963512 108.315956,12.2136488 108.933523,11.1883928 C109.551089,10.1631369 110.684966,9.56342921 111.88,9.63 L112.13,9.63 L112.13,6.31 C112.13,4.22788649 113.817886,2.54 115.9,2.54 C117.982114,2.54 119.67,4.22788649 119.67,6.31 L119.67,9.63 L123,9.63 C124.711429,9.72533719 126.050348,11.1409174 126.050348,12.855 C126.050348,14.5690826 124.711429,15.9846628 123,16.08 L119.68,16.08 L119.68,27.45 C119.68,29.19 120.42,30.03 122.11,30.03 C122.35,30.03 122.85,29.98 123,29.98 C124.722466,29.9909627 126.114549,31.3875078 126.12,33.11 C126.127205,34.3603515 125.358145,35.4840546 124.19,35.93 C122.814481,36.4657915 121.345622,36.7208018 119.87,36.68 C115.25,36.68 112.13,34.84 112.13,28.69 Z" id="Path" fill="#0099FF"></path>
                    <path d="M141.35,36.83 C133.35,36.83 127.46,31.22 127.46,23.08 L127.46,23 C127.46,15.41 132.86,9.16 140.6,9.16 C149.48,9.16 153.4,16.45 153.4,21.96 C153.450445,22.9171773 153.099249,23.8519978 152.431041,24.5391888 C151.762833,25.2263798 150.838215,25.6036192 149.88,25.58 L135,25.58 C135.481296,28.7389949 138.301665,31.0031131 141.49,30.79 C143.408973,30.7952821 145.275852,30.1659576 146.8,29 C147.322937,28.5884331 147.974969,28.375814 148.64,28.4 C149.431995,28.3883074 150.193846,28.7033186 150.746313,29.2709219 C151.29878,29.8385252 151.59309,30.6086097 151.56,31.4 C151.567389,32.2535055 151.202232,33.0678042 150.56,33.63 C147.983946,35.7858621 144.707816,36.9241483 141.35,36.83 L141.35,36.83 Z M146.21,20.83 C145.76,17.45 143.78,15.17 140.6,15.17 C137.42,15.17 135.44,17.4 134.85,20.83 L146.21,20.83 Z" id="Shape" fill="#0099FF"></path>
                    <path d="M155.93,28.79 L165.8,20.7 C170.12,17.18 171.8,15.24 171.8,12.36 C171.8,9.48 169.86,7.85 167.13,7.85 C164.95,7.85 163.41,8.79 161.48,10.85 C160.820623,11.5741737 159.889348,11.9908924 158.91,12 C157.98632,12.0053898 157.099054,11.6401554 156.446843,10.9860645 C155.794632,10.3319737 155.431952,9.44366099 155.44,8.52 C155.455588,7.64819813 155.769735,6.80812006 156.33,6.14 C159.059807,2.71493243 163.264554,0.804021711 167.64,1 C174.83,1 179.64,5.22 179.64,11.72 L179.64,11.82 C179.64,17.62 176.64,20.5 170.51,25.27 L164.85,29.63 L176.96,29.63 C178.79524,29.6574243 180.262252,31.1646904 180.24,33 C180.237397,33.8751502 179.885166,34.7129697 179.261661,35.3270843 C178.638157,35.9411988 177.795089,36.2806765 176.92,36.27 L158.07,36.27 C155.69,36.27 153.95,34.93 153.95,32.65 C153.959352,31.121857 154.694298,29.6890828 155.93,28.79 L155.93,28.79 Z" id="Path" fill="#0B4063"></path>
                    <path d="M207.28,32.76 C207.28,34.8421134 205.592113,36.5299997 203.51,36.5299997 C201.427887,36.5299997 199.74,34.8421134 199.74,32.76 L199.74,32.46 C198,34.69 195.74,36.73 191.95,36.73 C186.25,36.73 182.95,32.96 182.95,26.85 L182.95,13.11 C182.95,11.0278865 184.637886,9.34 186.72,9.34 C188.802114,9.34 190.49,11.0278865 190.49,13.11 L190.49,24.47 C190.49,28.04 192.18,29.88 195.06,29.88 C197.94,29.88 199.77,28.04 199.77,24.47 L199.77,13.11 C199.77,11.0278866 201.457887,9.34000032 203.54,9.34000032 C205.622113,9.34000032 207.31,11.0278866 207.31,13.11 L207.28,32.76 Z" id="Path" fill="#0B4063"></path>
                    <path d="M34.07,9.44 C30.4148221,10.8235079 27.5350298,13.7178813 26.17,17.38 C24.6466778,21.1760784 24.782081,25.4365211 26.5433755,29.1282094 C28.3046699,32.8198978 31.5309964,35.6056695 35.44,36.81 C36.0578208,37.0111142 36.5784164,37.4354352 36.9,38 L38.9,41.47 C39.0888166,41.7999372 39.4398549,42.0035021 39.82,42.0035021 C40.2001451,42.0035021 40.5511834,41.7999372 40.74,41.47 L42.63,38.2 C42.8379904,37.8411225 43.1089936,37.5226937 43.43,37.26 L40.34,30.98 L39.68,30.98 C36.8531246,30.9645172 34.2388279,29.4763604 32.7822884,27.053561 C31.3257488,24.6307617 31.2377094,21.6238685 32.55,19.12 C33.234512,17.6733519 34.4012811,16.5101185 35.85,15.83 C39.2647064,14.0039745 43.4953773,14.8643185 45.9256877,17.8789792 C48.3559982,20.89364 48.2990244,25.210528 45.79,28.16 C44.965362,29.1427674 44.8005154,30.5204146 45.37,31.67 L45.37,31.67 C45.8533998,32.6501556 46.7957761,33.3228814 47.8798069,33.4616534 C48.9638377,33.6004255 50.0452857,33.1867792 50.76,32.36 C55.1525541,27.2334147 55.4480513,19.7607822 51.4740308,14.3033497 C47.5000104,8.8459172 40.2974604,6.83325015 34.07,9.44 Z" id="Path" fill="#0B4063"></path>
                    <circle id="Oval" fill="#0B4063" cx="39.68" cy="22.92" r="5.1"></circle>
                    <circle id="Oval" fill="#0099FF" cx="48.31" cy="30.11" r="1.93"></circle>
                </g>
            </g>
        </g>
    </g>
</svg>